<?xml version="1.0" encoding="UTF-8" standalone="no"?>
<!-- Created with Inkscape (http://www.inkscape.org/) -->

<svg
   xmlns:osb="http://www.openswatchbook.org/uri/2009/osb"
   xmlns:dc="http://purl.org/dc/elements/1.1/"
   xmlns:cc="http://creativecommons.org/ns#"
   xmlns:rdf="http://www.w3.org/1999/02/22-rdf-syntax-ns#"
   xmlns:svg="http://www.w3.org/2000/svg"
   xmlns="http://www.w3.org/2000/svg"
   xmlns:sodipodi="http://sodipodi.sourceforge.net/DTD/sodipodi-0.dtd"
   xmlns:inkscape="http://www.inkscape.org/namespaces/inkscape"
   width="1986.8264"
   height="598.56549"
   id="svg2"
   version="1.1"
   inkscape:version="0.48.2 r9819"
   sodipodi:docname="logo.png"
   inkscape:export-filename="C:\Users\adrian\Desktop\DDDEA\website\logo.png"
   inkscape:export-xdpi="90"
   inkscape:export-ydpi="90">
  <defs
     id="defs4">
    <linearGradient
       id="linearGradient3755"
       osb:paint="solid">
      <stop
         style="stop-color:#0000ff;stop-opacity:1;"
         offset="0"
         id="stop3757" />
    </linearGradient>
  </defs>
  <sodipodi:namedview
     id="base"
     pagecolor="#ffffff"
     bordercolor="#666666"
     borderopacity="1.0"
     inkscape:pageopacity="0.0"
     inkscape:pageshadow="2"
     inkscape:zoom="0.76508705"
     inkscape:cx="1037.5037"
     inkscape:cy="124.12319"
     inkscape:document-units="px"
     inkscape:current-layer="layer1"
     showgrid="false"
     fit-margin-top="0"
     fit-margin-left="0"
     fit-margin-right="0"
     fit-margin-bottom="0"
     inkscape:window-width="1920"
     inkscape:window-height="1005"
     inkscape:window-x="-9"
     inkscape:window-y="-9"
     inkscape:window-maximized="1" />
  <metadata
     id="metadata7">
    <rdf:RDF>
      <cc:Work
         rdf:about="">
        <dc:format>image/svg+xml</dc:format>
        <dc:type
           rdf:resource="http://purl.org/dc/dcmitype/StillImage" />
        <dc:title></dc:title>
      </cc:Work>
    </rdf:RDF>
  </metadata>
  <g
     inkscape:label="Layer 1"
     inkscape:groupmode="layer"
     id="layer1"
     transform="translate(-167.82701,430.33493)">
    <g
       id="g3791">
      <rect
         inkscape:export-ydpi="90"
         inkscape:export-xdpi="90"
         ry="94.048828"
         y="-416.87677"
         x="181.28517"
         height="571.64917"
         width="1959.9102"
         id="rect2985"
         style="fill:#ffffff;stroke:#005800;stroke-width:26.91631508000000000;stroke-linecap:butt;stroke-linejoin:round;stroke-miterlimit:4;stroke-opacity:1;stroke-dasharray:none;fill-opacity:1" />
      <path
         inkscape:connector-curvature="0"
         id="path3310"
         d="m 1937.1198,-409.87732 0,568.19898 9.8214,0"
         style="fill:none;stroke:#005800;stroke-width:13.33063889;stroke-linecap:butt;stroke-linejoin:miter;stroke-miterlimit:4;stroke-opacity:1;stroke-dasharray:none" />
    </g>
    <g
       id="g4625"
       transform="matrix(1.0361017,0,0,1.1416019,-67.756078,49.598556)">
      <text
         sodipodi:linespacing="125%"
         id="text3761"
         y="-1.3521042"
         x="671.71429"
         style="font-size:138px;font-style:normal;font-variant:normal;font-weight:800;font-stretch:normal;line-height:125%;letter-spacing:0px;word-spacing:0px;fill:#005800;fill-opacity:1;stroke:none;font-family:RotisSansSerif;-inkscape-font-specification:RotisSansSerif Ultra-Bold"
         xml:space="preserve"><tspan
           y="-1.3521042"
           x="671.71429"
           id="tspan3763"
           sodipodi:role="line">DeveloperDeveloper</tspan></text>
      <text
         sodipodi:linespacing="125%"
         id="text3765"
         y="-150.49496"
         x="662.00006"
         style="font-size:300px;font-style:normal;font-variant:normal;font-weight:800;font-stretch:normal;line-height:125%;letter-spacing:0px;word-spacing:0px;fill:#005800;fill-opacity:1;stroke:none;font-family:RotisSansSerif;-inkscape-font-specification:RotisSansSerif Ultra-Bold"
         xml:space="preserve"><tspan
           style="font-size:280px"
           y="-150.49496"
           x="662.00006"
           id="tspan3767"
           sodipodi:role="line">Developer</tspan></text>
      <text
         transform="scale(0.96718272,1.0339308)"
         sodipodi:linespacing="125%"
         id="text3769"
         y="3.666348"
         x="1809.9701"
         style="font-size:496.28677368px;font-style:normal;font-variant:normal;font-weight:800;font-stretch:normal;line-height:125%;letter-spacing:0px;word-spacing:0px;fill:#005800;fill-opacity:1;stroke:none;font-family:RotisSansSerif;-inkscape-font-specification:RotisSansSerif Ultra-Bold"
         xml:space="preserve"><tspan
           style="font-size:496.28677368px"
           y="3.666348"
           x="1809.9701"
           id="tspan3771"
           sodipodi:role="line">!</tspan></text>
    </g>
    <text
       xml:space="preserve"
       style="font-size:104.98809052px;font-style:normal;font-variant:normal;font-weight:800;font-stretch:normal;line-height:125%;letter-spacing:0px;word-spacing:0px;fill:#005800;fill-opacity:1;stroke:none;font-family:RotisSansSerif;-inkscape-font-specification:RotisSansSerif Ultra-Bold"
       x="-111.86433"
       y="2027.678"
       id="text3777"
       sodipodi:linespacing="125%"
       transform="matrix(0,-0.98247887,1.0178336,0,0,0)"><tspan
         sodipodi:role="line"
         id="tspan3779"
         x="-111.86433"
         y="2027.678">East Anglia</tspan></text>
    <path
       style="fill:#005800;fill-opacity:1;stroke:#008000;stroke-width:1.25375295;stroke-linecap:round;stroke-linejoin:miter;stroke-miterlimit:4;stroke-opacity:1;stroke-dasharray:none"
       d="m 265.12097,81.574619 0,-5.470194 6.70994,-0.371633 6.70989,-0.371634 0.34394,-28.832231 0.34394,-28.832292 4.12958,-3.314846 4.12964,-3.314908 0.81398,-37.341689 c 0.44759,-20.537874 1.42469,-55.882206 2.1712,-78.542952 0.74645,-22.66071 1.99455,-73.85492 2.77354,-113.76489 0.77899,-39.90989 1.7122,-73.39371 2.07383,-74.40837 0.54332,-1.52535 0.97453,-1.43032 2.48815,0.54888 3.08685,4.03631 4.69527,0.70527 3.91146,-8.1006 -2.51185,-28.21863 -2.53733,-26.45016 0.46739,-32.42291 1.55779,-3.09657 5.07037,-7.36089 7.80575,-9.47622 l 4.9734,-3.84606 0.0594,-11.17067 c 0.033,-6.17845 0.78573,-12.81393 1.68685,-14.84775 l 1.62921,-3.67714 2.46689,3.61889 c 1.88971,2.77207 2.57278,6.35659 2.91924,15.31849 l 0.45221,11.6996 5.52938,4.68366 c 7.9024,6.69372 8.7851,10.29895 7.75142,31.6595 -0.47796,9.87936 -0.43637,18.37885 0.0924,18.88769 0.52879,0.50885 1.93071,-0.31128 3.11537,-1.82259 2.09595,-2.67397 2.17318,-2.50201 2.87309,6.40151 0.39543,5.03211 1.25681,26.85971 1.91381,48.50582 1.28388,42.30034 2.36483,49.57242 7.2528,48.79473 4.48408,-0.71341 7.19628,-4.53996 8.07067,-11.38629 0.69706,-5.45774 1.43182,-6.88906 4.34267,-8.46003 4.48415,-2.41994 7.61906,-0.72579 8.782,4.74586 0.46079,2.16817 1.13627,4.22931 1.50094,4.58024 0.36441,0.35131 3.59465,-0.57555 7.17761,-2.05866 l 6.51448,-2.69679 0,-7.03727 c 0,-6.87295 2.26811,-11.10817 5.94871,-11.10817 2.08921,0 6.43572,5.28686 7.32628,8.9112 0.80434,3.27343 0.95611,3.32723 4.96058,1.75799 5.32625,-2.08718 7.28376,-5.95033 7.30713,-14.4204 0.0198,-7.60953 1.46417,-9.77759 6.5084,-9.77759 4.81278,0 5.88185,1.84489 6.91143,11.92753 0.75853,7.4283 1.3911,9.15998 3.9312,10.76156 4.90738,3.09421 7.52188,2.37738 9.85938,-2.7034 1.16703,-2.53663 3.26014,-5.29022 4.6513,-6.11906 4.04527,-2.41002 7.77756,3.10642 7.77756,11.4955 0,6.40207 0.12675,6.63286 4.62939,8.44332 6.84924,2.7539 9.2478,2.397 10.22042,-1.52084 2.55997,-10.3123 11.98985,-7.75425 11.98985,3.2524 0,6.73445 1.56789,9.39674 6.51025,11.05473 4.84711,1.62598 5.7745,1.17703 6.6578,-3.22304 0.37497,-1.86852 1.25516,-5.61111 1.95573,-8.31685 0.70056,-2.70574 1.67575,-24.01357 2.16718,-47.35077 0.84045,-39.91332 1.67119,-49.40581 3.84814,-43.96858 1.32633,3.31268 4.07148,2.5515 4.65764,-1.29151 0.28849,-1.89412 -0.1756,-7.29024 -1.0321,-11.99143 -1.97573,-10.84415 -2.14473,-21.55553 -0.4093,-25.94766 0.74242,-1.879 4.19322,-6.30951 7.66851,-9.84556 l 6.3186,-6.42914 0.072,-10.22025 c 0.0733,-10.33573 2.05832,-18.82943 4.40123,-18.82943 2.35744,0 4.32835,8.51956 4.4011,19.02466 l 0.072,10.4154 6.70995,6.55516 6.70988,6.55525 -0.33008,20.76962 c -0.19079,12.00815 0.17626,21.07093 0.87108,21.48404 0.66076,0.39259 2.04624,-0.44659 3.07886,-1.86509 1.72646,-2.37198 1.94372,-1.65602 2.69914,8.89608 0.45155,6.31161 2.13404,75.35645 3.7383,153.43293 l 2.91672,141.957335 4.03306,3.239946 4.03299,3.239947 0.34395,28.832229 0.34394,28.832294 7.34892,0.369093 7.34898,0.369092 0,5.473116 0,5.473116 -156.56457,0 -156.56458,0 0,-5.470194 z M 313.85403,58.04576 c 1.15614,-6.625815 -0.34791,-14.661997 -2.7439,-14.661997 -1.45519,0 -1.98425,1.971438 -2.27775,8.487224 -0.20994,4.667974 -0.066,9.279915 0.32017,10.248831 1.24698,3.127122 3.83647,0.883154 4.70141,-4.074058 l 0,0 z m 221.10633,0.08322 c 1.30237,-7.582089 -0.33668,-14.745407 -3.37376,-14.745407 -1.91281,0 -2.71121,1.154034 -3.40339,4.91954 -0.83768,4.5575 -0.23304,12.201718 1.14795,14.519315 1.56201,2.620812 4.84268,-0.114349 5.6292,-4.693384 l 0,-6.4e-5 z m -42.17007,-83.619291 -0.46805,-68.873884 -3.84406,-5.879115 c -8.50842,-13.01284 -27.86918,-24.95587 -55.25011,-34.08205 l -11.46251,-3.82052 -11.54286,3.81303 c -27.39823,9.05052 -47.56847,21.53112 -55.32966,34.2359 l -3.50209,5.732755 -1.07164,67.395925 c -0.58953,37.067823 -0.74935,68.204054 -0.35583,69.191711 0.61791,1.549997 10.47181,1.752268 72.00494,1.477958 l 71.28887,-0.317636 -0.46805,-68.873884 z M 315.99051,-5.1698225 c 0.39808,-8.0301475 -1.07098,-11.5434505 -3.74952,-8.9659655 -1.54478,1.486535 -1.89856,14.0939373 -0.45815,16.3363183 2.02339,3.1505005 3.84432,-0.038113 4.20793,-7.3703528 l 0,0 z m 215.99523,0 c 0.39807,-8.0301475 -1.07098,-11.5434505 -3.74952,-8.9659655 -1.54478,1.486535 -1.89856,14.0939373 -0.45815,16.3363183 2.02346,3.1505005 3.84431,-0.038113 4.20793,-7.3703528 l 0,0 z M 316.88318,-49.575667 c 0,-7.288212 -0.38554,-9.121668 -1.91718,-9.121668 -1.46404,0 -2.00814,1.858549 -2.30238,7.864721 -0.43042,8.784085 0.25945,11.648904 2.62263,10.890898 1.08577,-0.348128 1.59693,-3.431861 1.59693,-9.633951 z m 211.71349,4.246025 c 1.11686,-6.295791 -0.36441,-13.367693 -2.80008,-13.367693 -1.39967,0 -1.96081,1.961399 -2.25003,7.864721 -0.21191,4.325625 -0.068,8.660906 0.32018,9.633951 1.25444,3.145736 3.83957,0.887982 4.72993,-4.130979 l 0,0 z M 317.26858,-97.41159 c 0.40138,-8.09412 -1.07157,-11.54294 -3.80616,-8.91146 -1.6918,1.62801 -2.17715,11.993035 -0.72321,15.443385 1.91011,4.532784 4.14014,1.316917 4.52937,-6.531925 z m 211.79145,7.32734 c 0.44297,-0.690028 0.80573,-4.358591 0.80573,-8.15243 0,-7.35339 -1.91784,-11.04718 -4.05042,-7.8012 -1.37281,2.08948 -1.68533,15.144109 -0.39214,16.388282 1.23127,1.184913 2.71043,1.008118 3.63703,-0.434518 l 0,0 z M 427.667,-162.00813 c -1.12636,-23.71142 -8.05317,-27.39989 -10.57856,-5.63301 -0.72901,6.28314 -1.00463,12.22846 -0.61263,13.2118 0.50503,1.26698 2.29902,1.67755 6.15647,1.40915 l 5.4435,-0.37862 -0.40864,-8.60925 z m -109.82553,0.75731 c 1.23245,-4.57688 -0.31028,-13.87319 -2.41388,-14.54803 -0.7778,-0.24966 -1.76712,0.81428 -2.19847,2.3639 -1.06755,3.83489 -1.02602,15.12245 0.0594,16.16703 1.65998,1.59738 3.47866,0.007 4.55287,-3.9829 l 0,0 z m 211.95544,-0.55078 c 1.07758,-6.37959 -0.36375,-13.73526 -2.69155,-13.73526 -1.43744,0 -1.98854,1.9004 -2.28073,7.86471 -0.21191,4.32563 -0.068,8.66091 0.32018,9.63396 1.22216,3.0648 3.85904,0.93161 4.6521,-3.76341 l 0,0 z"
       id="path4091"
       inkscape:connector-curvature="0" />
  </g>
</svg>
